<svg width="512" height="512" viewBox="0 0 512 512" fill="none" xmlns="http://www.w3.org/2000/svg">
<path fill-rule="evenodd" clip-rule="evenodd" d="M487.972 144.603C483.083 146.358 477.796 146.687 472.727 145.554C467.657 144.421 463.014 141.872 459.337 138.203L439.149 117.979L285.659 271.47C283.112 274.018 280.087 276.04 276.758 277.42C273.429 278.799 269.861 279.509 266.258 279.509C262.654 279.509 259.086 278.799 255.757 277.42C252.428 276.04 249.404 274.018 246.857 271.47L188.306 212.919L48.8223 352.402C46.2909 355.021 43.2633 357.109 39.9163 358.545C36.5692 359.981 32.9697 360.736 29.3277 360.765C25.6858 360.795 22.0743 360.1 18.7041 358.719C15.3339 357.338 12.2724 355.3 9.69833 352.724C7.12421 350.147 5.089 347.084 3.71146 343.712C2.33392 340.341 1.64163 336.729 1.67498 333.087C1.70833 329.445 2.46666 325.846 3.90572 322.5C5.34478 319.154 7.43575 316.129 10.0566 313.6L168.85 154.697C171.397 152.148 174.421 150.126 177.75 148.747C181.079 147.367 184.647 146.657 188.251 146.657C191.854 146.657 195.423 147.367 198.751 148.747C202.08 150.126 205.105 152.148 207.652 154.697L266.239 213.284L400.347 79.1771L380.16 58.9896C376.483 55.318 373.926 50.6778 372.784 45.6091C371.642 40.5404 371.964 35.2517 373.711 30.3587C375.459 25.4656 378.56 21.1695 382.653 17.9703C386.747 14.7711 391.666 12.8005 396.836 12.2879C430.226 8.99648 449.426 8.99648 481.572 12.2879C487.846 12.9366 493.704 15.7275 498.16 20.1906C502.617 24.6537 505.399 30.5162 506.038 36.7908C509.366 68.9005 509.33 88.1371 506.038 121.49C505.524 126.658 503.553 131.573 500.355 135.665C497.157 139.757 492.863 142.856 487.972 144.603ZM428.617 199.753C432.761 195.735 438.067 193.126 443.779 192.299C449.492 191.472 455.32 192.468 460.434 195.145L495.981 213.797C500.581 216.217 504.398 219.895 506.988 224.401C509.578 228.908 510.834 234.057 510.61 239.25L500.516 480.183C500.223 487.259 497.205 493.948 492.092 498.849C486.98 503.75 480.17 506.484 473.087 506.478H400.969C398.544 506.478 396.218 505.514 394.504 503.8C392.789 502.085 391.826 499.76 391.826 497.335V239.287C391.823 238.059 392.068 236.844 392.546 235.713C393.023 234.582 393.724 233.558 394.605 232.704L428.617 199.753ZM346.111 497.335C346.111 499.76 345.148 502.085 343.434 503.8C341.719 505.514 339.393 506.478 336.969 506.478H199.826C197.401 506.478 195.075 505.514 193.361 503.8C191.646 502.085 190.683 499.76 190.683 497.335V284.708C190.683 283.977 191.231 283.392 191.963 283.465C197.924 283.758 203.775 286.025 208.603 290.231L268.763 343.04C270.488 344.558 272.722 345.371 275.019 345.317C277.316 345.263 279.509 344.345 281.161 342.747L330.605 294.766C331.896 293.514 333.527 292.672 335.294 292.342C337.062 292.013 338.887 292.212 340.541 292.915C342.196 293.617 343.607 294.792 344.598 296.292C345.589 297.792 346.115 299.551 346.111 301.348V497.335ZM129.279 334.116L15.5423 450.267C10.5086 455.391 7.68541 462.285 7.67948 469.467V479.049C7.67948 494.19 19.9675 506.478 35.1081 506.478H135.826C138.251 506.478 140.576 505.514 142.291 503.8C144.005 502.085 144.969 499.76 144.969 497.335V340.516C144.972 338.697 144.433 336.918 143.419 335.406C142.405 333.895 140.964 332.721 139.279 332.033C137.594 331.346 135.743 331.177 133.961 331.548C132.18 331.919 130.55 332.814 129.279 334.116Z" fill="url(#paint0_linear_1452_5780)"/>
<defs>
<linearGradient id="paint0_linear_1452_5780" x1="256.155" y1="9.81934" x2="256.155" y2="506.478" gradientUnits="userSpaceOnUse">
<stop stop-color="#FFDB6E"/>
<stop offset="1" stop-color="#FFBC5E"/>
</linearGradient>
</defs>
</svg>
