<svg width="512" height="512" viewBox="0 0 512 512" fill="none" xmlns="http://www.w3.org/2000/svg">
<g clip-path="url(#clip0_1452_5770)">
<path d="M139.379 267.378H372.623V311.182H395.379V244.622H267.379V199.111H244.623V244.622H116.623V311.182H139.379V267.378Z" fill="url(#paint0_linear_1452_5770)"/>
<path d="M199.112 327.111H56.8898C49.3458 327.111 42.1109 330.108 36.7765 335.443C31.4421 340.777 28.4453 348.012 28.4453 355.556V440.889C28.4453 448.433 31.4421 455.668 36.7765 461.002C42.1109 466.337 49.3458 469.334 56.8898 469.334H199.112C206.656 469.334 213.891 466.337 219.225 461.002C224.56 455.668 227.556 448.433 227.556 440.889V355.556C227.556 348.012 224.56 340.777 219.225 335.443C213.891 330.108 206.656 327.111 199.112 327.111ZM56.8898 440.889V355.556H199.112V440.889H56.8898Z" fill="url(#paint1_linear_1452_5770)"/>
<path d="M455.112 327.111H312.89C305.346 327.111 298.111 330.108 292.777 335.443C287.442 340.777 284.445 348.012 284.445 355.556V440.889C284.445 448.433 287.442 455.668 292.777 461.002C298.111 466.337 305.346 469.334 312.89 469.334H455.112C462.656 469.334 469.891 466.337 475.225 461.002C480.56 455.668 483.556 448.433 483.556 440.889V355.556C483.556 348.012 480.56 340.777 475.225 335.443C469.891 330.108 462.656 327.111 455.112 327.111ZM312.89 440.889V355.556H455.112V440.889H312.89Z" fill="url(#paint2_linear_1452_5770)"/>
<path d="M184.89 184.889H327.112C334.656 184.889 341.891 181.892 347.225 176.558C352.56 171.223 355.556 163.988 355.556 156.444V71.111C355.556 63.567 352.56 56.3321 347.225 50.9977C341.891 45.6633 334.656 42.6665 327.112 42.6665H184.89C177.346 42.6665 170.111 45.6633 164.777 50.9977C159.442 56.3321 156.445 63.567 156.445 71.111V156.444C156.445 163.988 159.442 171.223 164.777 176.558C170.111 181.892 177.346 184.889 184.89 184.889ZM184.89 71.111H327.112V156.444H184.89V71.111Z" fill="url(#paint3_linear_1452_5770)"/>
</g>
<defs>
<linearGradient id="paint0_linear_1452_5770" x1="256.001" y1="199.111" x2="256.001" y2="311.182" gradientUnits="userSpaceOnUse">
<stop stop-color="#FFDB6E"/>
<stop offset="1" stop-color="#FFBC5E"/>
</linearGradient>
<linearGradient id="paint1_linear_1452_5770" x1="128.001" y1="327.111" x2="128.001" y2="469.334" gradientUnits="userSpaceOnUse">
<stop stop-color="#FFDB6E"/>
<stop offset="1" stop-color="#FFBC5E"/>
</linearGradient>
<linearGradient id="paint2_linear_1452_5770" x1="384.001" y1="327.111" x2="384.001" y2="469.334" gradientUnits="userSpaceOnUse">
<stop stop-color="#FFDB6E"/>
<stop offset="1" stop-color="#FFBC5E"/>
</linearGradient>
<linearGradient id="paint3_linear_1452_5770" x1="256.001" y1="42.6665" x2="256.001" y2="184.889" gradientUnits="userSpaceOnUse">
<stop stop-color="#FFDB6E"/>
<stop offset="1" stop-color="#FFBC5E"/>
</linearGradient>
<clipPath id="clip0_1452_5770">
<rect width="512" height="512" fill="white"/>
</clipPath>
</defs>
</svg>
