<svg width="512" height="512" viewBox="0 0 512 512" fill="none" xmlns="http://www.w3.org/2000/svg">
<path d="M277.333 441.451C258.027 454.848 226.987 447.68 220.267 419.904C218.903 414.276 216.23 409.05 212.465 404.651C208.7 400.251 203.949 396.803 198.599 394.587C193.25 392.37 187.452 391.449 181.679 391.896C175.906 392.344 170.32 394.148 165.376 397.163C132.459 417.216 94.7627 379.541 114.816 346.603C117.826 341.661 119.628 336.078 120.074 330.309C120.521 324.54 119.6 318.746 117.386 313.4C115.172 308.054 111.728 303.305 107.334 299.54C102.939 295.775 97.7187 293.101 92.096 291.733C54.6347 282.645 54.6347 229.355 92.096 220.267C97.7237 218.903 102.95 216.23 107.349 212.465C111.749 208.7 115.197 203.949 117.413 198.599C119.63 193.25 120.551 187.452 120.104 181.679C119.656 175.906 117.852 170.32 114.837 165.376C94.784 132.459 132.459 94.7627 165.397 114.816C186.731 127.787 214.379 116.309 220.267 92.096C229.355 54.6347 282.645 54.6347 291.733 92.096C293.097 97.7237 295.77 102.95 299.535 107.349C303.3 111.749 308.051 115.197 313.401 117.413C318.75 119.63 324.548 120.551 330.321 120.104C336.094 119.656 341.68 117.852 346.624 114.837C379.541 94.784 417.237 132.459 397.184 165.397C394.174 170.339 392.372 175.922 391.926 181.691C391.479 187.46 392.4 193.254 394.614 198.6C396.828 203.946 400.272 208.695 404.666 212.46C409.061 216.225 414.281 218.899 419.904 220.267C451.733 227.989 456.512 267.605 434.283 284.907" stroke="url(#paint0_linear_1452_5776)" stroke-width="42.6667" stroke-linecap="round" stroke-linejoin="round"/>
<path d="M192 256C192 272.974 198.743 289.253 210.745 301.255C222.747 313.257 239.026 320 256 320C272.974 320 289.253 313.257 301.255 301.255C313.257 289.253 320 272.974 320 256C320 239.026 313.257 222.747 301.255 210.745C289.253 198.743 272.974 192 256 192C239.026 192 222.747 198.743 210.745 210.745C198.743 222.747 192 239.026 192 256ZM362.667 469.333L469.333 405.333L362.667 341.333V469.333Z" stroke="url(#paint1_linear_1452_5776)" stroke-width="42.6667" stroke-linecap="round" stroke-linejoin="round"/>
<defs>
<linearGradient id="paint0_linear_1452_5776" x1="256.001" y1="64" x2="256.001" y2="447.995" gradientUnits="userSpaceOnUse">
<stop stop-color="#FFDB6E"/>
<stop offset="1" stop-color="#FFBC5E"/>
</linearGradient>
<linearGradient id="paint1_linear_1452_5776" x1="330.667" y1="192" x2="330.667" y2="469.333" gradientUnits="userSpaceOnUse">
<stop stop-color="#FFDB6E"/>
<stop offset="1" stop-color="#FFBC5E"/>
</linearGradient>
</defs>
</svg>
